<svg width="340" height="366" viewBox="0 0 340 366" fill="none" xmlns="http://www.w3.org/2000/svg">
<path d="M292.297 44.0582C370.551 118.987 347.655 252.648 249.507 298.587C133.668 352.843 7.98132 255.895 26.7543 132.056C45.6473 7.22724 200.474 -43.9004 292.337 44.0582H292.297ZM85.2747 63.8594C18.7488 132.61 45.7674 249.836 136.15 282.35C236.739 318.507 334.046 231.024 313.111 128.65C291.737 24.3357 159.686 -13.0496 85.2747 63.8594Z" fill="url(#paint0_linear_2949_60)"/>
<path d="M221.467 130.966C246.788 155.214 252.76 197.115 240.657 229.222C232.057 251.969 212.867 273.492 186.988 274.914L186.669 115.17C186.869 114.775 187.028 114.656 187.466 114.656C190.412 114.696 195.508 115.959 198.414 116.828C207.173 119.474 214.938 124.687 221.427 130.927L221.467 130.966ZM200.803 141.55C199.012 141.905 195.986 144.196 195.19 145.854C191.646 153.042 200.246 161.098 207.094 156.478C214.42 151.581 209.721 139.733 200.803 141.55ZM211.991 209.12C194.274 210.976 199.29 238.581 216.769 233.605C231.141 229.538 227.438 207.461 211.991 209.12Z" fill="url(#paint1_linear_2949_60)"/>
<path d="M180.145 114.656L179.332 274.914C164.486 273.299 151.755 266.487 141.708 256.013C119.703 233.018 114.05 197.226 122.673 167.498C130.156 141.825 150.82 116.585 180.145 114.656ZM169.448 143.518C161.557 136.391 149.883 148.007 157.774 155.41C165.666 162.812 177.501 150.803 169.448 143.518ZM143.66 212.819C139.593 217.347 139.308 224.316 143.132 229.002C149.437 236.798 162.818 234.475 165.625 224.789C168.432 215.102 152.365 203.054 143.66 212.779V212.819Z" fill="url(#paint2_linear_2949_60)"/>
<path d="M180.145 114.656L179.332 274.914C164.486 273.299 151.755 266.487 141.708 256.013C119.703 233.018 114.05 197.226 122.673 167.498C130.156 141.825 150.82 116.585 180.145 114.656ZM169.448 143.518C161.557 136.391 149.883 148.007 157.774 155.41C165.666 162.812 177.501 150.803 169.448 143.518ZM143.66 212.819C139.593 217.347 139.308 224.316 143.132 229.002C149.437 236.798 162.818 234.475 165.625 224.789C168.432 215.102 152.365 203.054 143.66 212.779V212.819Z" fill="url(#paint3_linear_2949_60)"/>
<path d="M215.023 97.7771C222.937 94.6193 229.853 88.0673 232.891 80.0941C234.609 75.5944 235.089 69.9892 234.609 65.1738C234.21 61.3056 231.131 55.7798 237.128 53.8455C245.242 51.2406 246.362 62.2134 246.641 67.5423C247.441 84.0807 237.807 99.1194 223.577 107.132C222.377 107.803 216.541 110.092 216.341 110.447C216.141 110.803 216.181 115.934 215.661 115.895C210.705 112.776 205.588 109.855 199.952 108.119C184.242 103.224 168.053 105 153.942 113.368C153.143 113.842 150.064 116.368 149.505 115.895C148.986 114.631 149.305 111.355 148.585 110.487C147.866 109.619 142.869 107.803 141.79 107.132C126.121 97.8955 116.887 82.8967 119.165 64.4239C119.405 62.4107 119.925 58.977 120.644 57.2006C122.363 52.8588 128.28 52.0694 131.078 55.7798C133.835 59.4506 131.158 62.8058 130.797 66.8318C129.639 79.3047 137.113 92.0934 148.746 97.1851C160.378 102.277 150.225 97.9744 150.544 97.3824C150.865 96.7904 151.224 94.422 151.624 93.3169C154.782 84.949 160.738 76.3443 168.693 71.8841C189.759 60.1216 210.505 77.3704 215.063 97.7376L215.023 97.7771Z" fill="url(#paint4_linear_2949_60)"/>
<path d="M278.436 132.651C269.63 142.966 256.855 148.815 243.647 149.83C243.018 147.759 241.957 145.809 240.896 143.941C239.834 142.073 238.066 140.002 237.672 139.149C237.278 138.296 237.986 138.621 238.223 138.54C240.267 137.89 243.058 138.053 245.22 137.646C258.388 135.128 268.884 129.24 275.134 116.569C277.531 111.777 277.846 104.223 284.922 105.726C291.998 107.228 289.246 109.299 289.089 111.858C288.813 117.381 281.974 128.428 278.358 132.651H278.436Z" fill="url(#paint5_linear_2949_60)"/>
<path d="M97.6193 126.365C105.799 134.193 116.877 136.828 127.956 137.615L121.841 148.276C120.928 148.984 116.957 148 115.567 147.725C100.319 144.814 87.5734 136.199 80.1083 122.667C72.6433 109.135 73.0404 109.843 78.5995 106.578C86.3424 102.054 88.2483 113.383 90.8691 117.907C93.4898 122.431 95.078 123.887 97.6193 126.365Z" fill="url(#paint6_linear_2949_60)"/>
<path d="M110.022 254.029C107.359 256.255 102.799 255.659 101.064 252.599C99.3291 249.538 98.2397 241.033 98.0379 237.695C97.1906 223.706 102.234 209.001 112.564 199.344C112.927 202.165 113.048 205.027 113.451 207.849C113.855 210.67 114.985 213.969 114.904 215.002C114.823 216.036 112.886 219.136 112.402 220.447C110.062 227.004 109.295 233.164 110.183 240.08C111.071 246.995 114.057 250.73 110.062 254.069L110.022 254.029Z" fill="url(#paint7_linear_2949_60)"/>
<path d="M254.07 199.826C266.348 210.489 270.999 236.57 264.88 251.107C263.249 255.021 259.74 256.659 255.865 254.222C251.581 251.507 253.907 247.672 254.519 244.158C255.783 236.53 256.151 229.46 253.703 222.032C253.173 220.394 250.603 215.761 250.603 214.723C250.603 213.685 251.908 209.85 252.153 208.293C252.602 205.337 252.846 202.302 253.009 199.346C253.009 199.306 253.907 199.746 254.111 199.866L254.07 199.826Z" fill="url(#paint8_linear_2949_60)"/>
<path d="M117.518 162.867C116.063 166.74 115.013 170.848 114.205 174.916C104.912 176.559 96.7094 181.801 91.0528 189.117C85.3962 196.432 85.7194 201.518 78.9315 198.427C71.2951 194.946 79.4567 184.696 82.7295 180.667C91.2549 170.3 103.699 163.532 117.477 162.867H117.518Z" fill="url(#paint9_linear_2949_60)"/>
<path d="M278.068 175.705C281.079 178.51 289.204 188.543 289.679 192.375C290.313 197.431 286.35 200.513 281.476 198.933C279.138 198.182 277.236 193.363 275.77 191.19C269.984 182.737 262.336 177.246 252.151 175.034C251.201 170.965 250.646 166.857 249.298 162.867C260.078 163.736 270.222 168.397 278.068 175.666V175.705Z" fill="url(#paint10_linear_2949_60)"/>
<path d="M102.878 272.942L78.4072 252.281L0.000265768 344.881L24.4709 365.542L102.878 272.942Z" fill="#D9D9D9"/>
<path d="M102.878 272.942L78.4072 252.281L0.000265768 344.881L24.4709 365.542L102.878 272.942Z" fill="#C0250D"/>
<defs>
<linearGradient id="paint0_linear_2949_60" x1="182.103" y1="-1.34624e-05" x2="182.103" y2="314" gradientUnits="userSpaceOnUse">
<stop stop-color="#B22A16"/>
<stop offset="1" stop-color="#C3240B"/>
</linearGradient>
<linearGradient id="paint1_linear_2949_60" x1="216.679" y1="114.656" x2="216.679" y2="274.913" gradientUnits="userSpaceOnUse">
<stop stop-color="#B22A16"/>
<stop offset="1" stop-color="#C3240B"/>
</linearGradient>
<linearGradient id="paint2_linear_2949_60" x1="149.484" y1="114.656" x2="149.484" y2="274.914" gradientUnits="userSpaceOnUse">
<stop stop-color="#067BB4"/>
<stop offset="1" stop-color="#058B9D"/>
</linearGradient>
<linearGradient id="paint3_linear_2949_60" x1="149.484" y1="114.656" x2="149.484" y2="274.913" gradientUnits="userSpaceOnUse">
<stop stop-color="#B22A16"/>
<stop offset="1" stop-color="#C3240B"/>
</linearGradient>
<linearGradient id="paint4_linear_2949_60" x1="182.755" y1="53.4141" x2="182.755" y2="115.953" gradientUnits="userSpaceOnUse">
<stop stop-color="#B22A16"/>
<stop offset="1" stop-color="#C3240B"/>
</linearGradient>
<linearGradient id="paint5_linear_2949_60" x1="263.651" y1="105.531" x2="263.651" y2="149.83" gradientUnits="userSpaceOnUse">
<stop stop-color="#B22A16"/>
<stop offset="1" stop-color="#C3240B"/>
</linearGradient>
<linearGradient id="paint6_linear_2949_60" x1="101.208" y1="105.531" x2="101.208" y2="148.527" gradientUnits="userSpaceOnUse">
<stop stop-color="#B22A16"/>
<stop offset="1" stop-color="#C3240B"/>
</linearGradient>
<linearGradient id="paint7_linear_2949_60" x1="106.427" y1="199.344" x2="106.427" y2="255.369" gradientUnits="userSpaceOnUse">
<stop stop-color="#B22A16"/>
<stop offset="1" stop-color="#C3240B"/>
</linearGradient>
<linearGradient id="paint8_linear_2949_60" x1="259.084" y1="199.344" x2="259.084" y2="255.369" gradientUnits="userSpaceOnUse">
<stop stop-color="#B22A16"/>
<stop offset="1" stop-color="#C3240B"/>
</linearGradient>
<linearGradient id="paint9_linear_2949_60" x1="96.6416" y1="162.867" x2="96.6416" y2="199.349" gradientUnits="userSpaceOnUse">
<stop stop-color="#B22A16"/>
<stop offset="1" stop-color="#C3240B"/>
</linearGradient>
<linearGradient id="paint10_linear_2949_60" x1="269.522" y1="162.867" x2="269.522" y2="199.349" gradientUnits="userSpaceOnUse">
<stop stop-color="#B22A16"/>
<stop offset="1" stop-color="#C3240B"/>
</linearGradient>
</defs>
</svg>
