<svg width="60" height="60" viewBox="0 0 60 60" fill="none" xmlns="http://www.w3.org/2000/svg">
    <defs>
        <linearGradient id="purple-gradient" x1="0%" y1="0%" x2="100%" y2="100%">
            <stop offset="0%" stop-color="#667eea" />
            <stop offset="100%" stop-color="#764ba2" />
        </linearGradient>
    </defs>

    <g id="icon-symbol" transform="translate(0, 0)">
        <path d="M 50 5 C 25 5, 5 25, 5 50 C 5 75, 25 95, 50 95 L 65 95 C 75 95, 85 85, 85 75 L 85 60 C 85 45, 75 35, 60 35 L 45 35 C 35 35, 25 45, 25 55 C 25 65, 35 75, 45 75 L 55 75"
              stroke="url(#purple-gradient)"
              stroke-width="10"
              stroke-linecap="round"
              fill="none"
              transform="scale(0.6)"/>

        <circle cx="30" cy="30" r="5" fill="url(#purple-gradient)"/>
        <circle cx="45" cy="35" r="4" fill="url(#purple-gradient)"/>
    </g>
</svg>
