<svg width="815" height="480" viewBox="0 0 815 480" fill="none" xmlns="http://www.w3.org/2000/svg">
<g clip-path="url(#clip0_2949_25)">
<path d="M702.865 357.456C731.728 359.819 777.945 349.228 799.222 374.086C816.749 394.568 810.122 431.155 783.961 441.046L810.122 479.996H779.602C772.887 468.005 764.516 456.976 756.493 445.86H731.641V479.996H702.865V357.456ZM731.641 423.978H755.621C756.668 423.978 762.597 423.015 763.993 422.752C783.526 418.376 786.316 391.855 769.487 383.889C768.353 383.364 762.51 381.176 761.726 381.176H731.641V424.065V423.978Z" fill="url(#paint0_linear_2949_25)"/>
<path d="M534.132 406.477H589.068V358.774C589.068 358.686 590.289 357.461 590.376 357.461H616.536C616.624 357.461 617.845 358.686 617.845 358.774V480.001H589.068V430.11H534.132V480.001H505.355V358.774C505.355 358.686 506.576 357.461 506.663 357.461H532.823C532.912 357.461 534.132 358.686 534.132 358.774V406.477Z" fill="url(#paint1_linear_2949_25)"/>
<path d="M682.199 380.218H617.583V407.352H674.351V429.235H617.583V457.244H683.943V480.001H589.679V357.461H680.891C680.979 357.461 682.199 358.686 682.199 358.774V380.218Z" fill="url(#paint2_linear_2949_25)"/>
<path d="M275.146 480H245.497C244.102 476.586 235.993 454.354 234.511 453.829L179.661 453.654L178.266 454.267L167.452 480H139.112L192.741 358.335C193.351 357.372 194.398 357.547 195.357 357.46C200.066 356.847 214.28 356.847 218.989 357.46C223.697 358.072 220.907 357.46 221.604 358.335L275.233 480H275.146ZM225.442 432.734L206.257 386.344L187.945 432.734H225.442Z" fill="url(#paint3_linear_2949_25)"/>
<path d="M371.066 357.461V381.094H331.826V480.001H303.922V381.094H264.681V357.461H371.066Z" fill="url(#paint4_linear_2949_25)"/>
<path d="M91.0382 480.001C81.612 480.001 72.8258 478.535 64.6797 475.601C56.6499 472.554 49.6675 468.267 43.7324 462.737C37.7974 457.209 33.1424 450.72 29.7676 443.273C26.5091 435.826 24.8799 427.645 24.8799 418.731C24.8799 409.817 26.5091 401.637 29.7676 394.189C33.1424 386.742 37.7974 380.254 43.7324 374.725C49.7839 369.196 56.8244 364.965 64.8542 362.031C72.884 358.984 81.6702 357.461 91.2128 357.461C101.803 357.461 111.345 359.266 119.841 362.877C128.452 366.375 135.667 371.566 141.487 378.449L123.332 394.697C119.142 390.071 114.488 386.629 109.367 384.373C104.247 382.003 98.6606 380.818 92.6093 380.818C86.907 380.818 81.6702 381.721 76.8989 383.526C72.1275 385.332 67.9963 387.927 64.5051 391.312C61.0139 394.697 58.2791 398.703 56.3008 403.329C54.4388 407.955 53.5078 413.09 53.5078 418.731C53.5078 424.373 54.4388 429.507 56.3008 434.134C58.2791 438.76 61.0139 442.765 64.5051 446.15C67.9963 449.535 72.1275 452.131 76.8989 453.936C81.6702 455.742 86.907 456.644 92.6093 456.644C98.6606 456.644 104.247 455.516 109.367 453.259C114.488 450.889 119.142 447.335 123.332 442.596L141.487 458.844C135.667 465.728 128.452 470.975 119.841 474.585C111.345 478.196 101.745 480.001 91.0382 480.001ZM440.084 480.001C430.658 480.001 421.871 478.535 413.726 475.601C405.695 472.554 398.713 468.267 392.778 462.737C386.842 457.209 382.188 450.72 378.813 443.273C375.554 435.826 373.925 427.645 373.925 418.731C373.925 409.817 375.554 401.637 378.813 394.189C382.188 386.742 386.842 380.254 392.778 374.725C398.829 369.196 405.87 364.965 413.9 362.031C421.929 358.984 430.716 357.461 440.258 357.461C450.848 357.461 460.392 359.266 468.886 362.877C477.498 366.375 484.713 371.566 490.531 378.449L472.378 394.697C468.188 390.071 463.533 386.629 458.413 384.373C453.292 382.003 447.706 380.818 441.655 380.818C435.953 380.818 430.716 381.721 425.945 383.526C421.173 385.332 417.042 387.927 413.55 391.312C410.059 394.697 407.325 398.703 405.347 403.329C403.485 407.955 402.554 413.09 402.554 418.731C402.554 424.373 403.485 429.507 405.347 434.134C407.325 438.76 410.059 442.765 413.55 446.15C417.042 449.535 421.173 452.131 425.945 453.936C430.716 455.742 435.953 456.644 441.655 456.644C447.706 456.644 453.292 455.516 458.413 453.259C463.533 450.889 468.188 447.335 472.378 442.596L490.531 458.844C484.713 465.728 477.498 470.975 468.886 474.585C460.392 478.196 450.79 480.001 440.084 480.001Z" fill="url(#paint5_linear_2949_25)"/>
<path d="M425.081 260.678C411.961 260.678 400.281 257.878 390.041 252.278C379.801 246.518 371.721 238.678 365.801 228.758C359.881 218.838 356.921 207.558 356.921 194.918C356.921 182.118 359.881 170.838 365.801 161.078C371.721 151.158 379.801 143.398 390.041 137.798C400.281 132.198 411.961 129.398 425.081 129.398C438.361 129.398 450.121 132.198 460.361 137.798C470.761 143.398 478.841 151.078 484.601 160.838C490.521 170.598 493.481 181.958 493.481 194.918C493.481 207.558 490.521 218.838 484.601 228.758C478.841 238.678 470.761 246.518 460.361 252.278C450.121 257.878 438.361 260.678 425.081 260.678ZM425.081 234.998C432.441 234.998 439.001 233.398 444.761 230.198C450.521 226.998 455.001 222.358 458.201 216.278C461.561 210.198 463.241 203.078 463.241 194.918C463.241 186.598 461.561 179.478 458.201 173.558C455.001 167.478 450.521 162.838 444.761 159.638C439.001 156.438 432.521 154.838 425.321 154.838C417.961 154.838 411.401 156.438 405.641 159.638C400.041 162.838 395.561 167.478 392.201 173.558C388.841 179.478 387.161 186.598 387.161 194.918C387.161 203.078 388.841 210.198 392.201 216.278C395.561 222.358 400.041 226.998 405.641 230.198C411.401 233.398 417.881 234.998 425.081 234.998ZM605.209 260.678C594.809 260.678 585.289 258.278 576.649 253.478C568.169 248.678 561.369 241.478 556.249 231.878C551.289 222.118 548.809 209.798 548.809 194.918C548.809 179.878 551.209 167.558 556.009 157.958C560.969 148.358 567.689 141.238 576.169 136.598C584.649 131.798 594.329 129.398 605.209 129.398C617.849 129.398 628.969 132.118 638.569 137.558C648.329 142.998 656.009 150.598 661.609 160.358C667.369 170.118 670.249 181.638 670.249 194.918C670.249 208.198 667.369 219.798 661.609 229.718C656.009 239.478 648.329 247.078 638.569 252.518C628.969 257.958 617.849 260.678 605.209 260.678ZM534.169 305.558V130.838H562.729V161.078L561.769 195.158L564.169 229.238V305.558H534.169ZM601.849 234.998C609.049 234.998 615.449 233.398 621.049 230.198C626.809 226.998 631.369 222.358 634.729 216.278C638.089 210.198 639.769 203.078 639.769 194.918C639.769 186.598 638.089 179.478 634.729 173.558C631.369 167.478 626.809 162.838 621.049 159.638C615.449 156.438 609.049 154.838 601.849 154.838C594.649 154.838 588.169 156.438 582.409 159.638C576.649 162.838 572.089 167.478 568.729 173.558C565.369 179.478 563.689 186.598 563.689 194.918C563.689 203.078 565.369 210.198 568.729 216.278C572.089 222.358 576.649 226.998 582.409 230.198C588.169 233.398 594.649 234.998 601.849 234.998ZM750.3 260.678C739.58 260.678 729.26 259.318 719.34 256.598C709.58 253.718 701.82 250.278 696.06 246.278L707.58 223.478C713.34 227.158 720.22 230.198 728.22 232.598C736.22 234.998 744.22 236.198 752.22 236.198C761.66 236.198 768.46 234.918 772.62 232.358C776.94 229.798 779.1 226.358 779.1 222.038C779.1 218.518 777.66 215.878 774.78 214.118C771.9 212.198 768.14 210.758 763.5 209.798C758.86 208.838 753.66 207.958 747.9 207.158C742.3 206.358 736.62 205.318 730.86 204.038C725.26 202.598 720.14 200.598 715.5 198.038C710.86 195.318 707.1 191.718 704.22 187.238C701.34 182.758 699.9 176.838 699.9 169.478C699.9 161.318 702.22 154.278 706.86 148.358C711.5 142.278 717.98 137.638 726.3 134.438C734.78 131.078 744.78 129.398 756.3 129.398C764.94 129.398 773.66 130.358 782.46 132.278C791.26 134.198 798.54 136.918 804.3 140.438L792.78 163.238C786.7 159.558 780.54 157.078 774.3 155.798C768.22 154.358 762.14 153.638 756.06 153.638C746.94 153.638 740.14 154.998 735.66 157.718C731.34 160.438 729.18 163.878 729.18 168.038C729.18 171.878 730.62 174.758 733.5 176.678C736.38 178.598 740.14 180.118 744.78 181.238C749.42 182.358 754.54 183.318 760.14 184.118C765.9 184.758 771.58 185.798 777.18 187.238C782.78 188.678 787.9 190.678 792.54 193.238C797.34 195.638 801.18 199.078 804.06 203.558C806.94 208.038 808.38 213.878 808.38 221.078C808.38 229.078 805.98 236.038 801.18 241.958C796.54 247.878 789.9 252.518 781.26 255.878C772.62 259.078 762.3 260.678 750.3 260.678Z" fill="#BF250D"/>
<path d="M292.297 44.0582C370.551 118.987 347.655 252.648 249.507 298.587C133.668 352.843 7.98132 255.895 26.7543 132.056C45.6473 7.22724 200.474 -43.9004 292.337 44.0582H292.297ZM85.2747 63.8594C18.7488 132.61 45.7674 249.836 136.15 282.35C236.739 318.507 334.046 231.024 313.111 128.65C291.737 24.3357 159.686 -13.0496 85.2747 63.8594Z" fill="url(#paint6_linear_2949_25)"/>
<path d="M221.467 130.966C246.788 155.214 252.76 197.115 240.657 229.222C232.057 251.969 212.867 273.492 186.988 274.914L186.669 115.17C186.869 114.775 187.028 114.656 187.466 114.656C190.412 114.696 195.508 115.959 198.414 116.828C207.173 119.474 214.938 124.687 221.427 130.927L221.467 130.966ZM200.803 141.55C199.012 141.905 195.986 144.196 195.19 145.854C191.646 153.042 200.246 161.098 207.094 156.478C214.42 151.581 209.721 139.733 200.803 141.55ZM211.991 209.12C194.274 210.976 199.29 238.581 216.769 233.605C231.141 229.538 227.438 207.461 211.991 209.12Z" fill="url(#paint7_linear_2949_25)"/>
<path d="M180.145 114.656L179.332 274.914C164.486 273.299 151.755 266.487 141.708 256.013C119.703 233.018 114.05 197.226 122.673 167.498C130.156 141.825 150.82 116.585 180.145 114.656ZM169.448 143.518C161.557 136.391 149.883 148.007 157.774 155.41C165.666 162.812 177.501 150.803 169.448 143.518ZM143.66 212.819C139.593 217.347 139.308 224.316 143.132 229.002C149.437 236.798 162.818 234.475 165.625 224.789C168.432 215.102 152.365 203.054 143.66 212.779V212.819Z" fill="url(#paint8_linear_2949_25)"/>
<path d="M180.145 114.656L179.332 274.914C164.486 273.299 151.755 266.487 141.708 256.013C119.703 233.018 114.05 197.226 122.673 167.498C130.156 141.825 150.82 116.585 180.145 114.656ZM169.448 143.518C161.557 136.391 149.883 148.007 157.774 155.41C165.666 162.812 177.501 150.803 169.448 143.518ZM143.66 212.819C139.593 217.347 139.308 224.316 143.132 229.002C149.437 236.798 162.818 234.475 165.625 224.789C168.432 215.102 152.365 203.054 143.66 212.779V212.819Z" fill="url(#paint9_linear_2949_25)"/>
<path d="M215.023 97.7771C222.937 94.6193 229.853 88.0673 232.891 80.0941C234.609 75.5944 235.089 69.9892 234.609 65.1738C234.21 61.3056 231.131 55.7798 237.128 53.8455C245.242 51.2406 246.362 62.2134 246.641 67.5423C247.441 84.0807 237.807 99.1194 223.577 107.132C222.377 107.803 216.541 110.092 216.341 110.447C216.141 110.803 216.181 115.934 215.661 115.895C210.705 112.776 205.588 109.855 199.952 108.119C184.242 103.224 168.053 105 153.942 113.368C153.143 113.842 150.064 116.368 149.505 115.895C148.986 114.631 149.305 111.355 148.585 110.487C147.866 109.619 142.869 107.803 141.79 107.132C126.121 97.8955 116.887 82.8967 119.165 64.4239C119.405 62.4107 119.925 58.977 120.644 57.2006C122.363 52.8588 128.28 52.0694 131.078 55.7798C133.835 59.4506 131.158 62.8058 130.797 66.8318C129.639 79.3047 137.113 92.0934 148.746 97.1851C160.378 102.277 150.225 97.9744 150.544 97.3824C150.865 96.7904 151.224 94.422 151.624 93.3169C154.782 84.949 160.738 76.3443 168.693 71.8841C189.759 60.1216 210.505 77.3704 215.063 97.7376L215.023 97.7771Z" fill="url(#paint10_linear_2949_25)"/>
<path d="M278.436 132.651C269.63 142.966 256.855 148.815 243.647 149.83C243.018 147.759 241.957 145.809 240.896 143.941C239.834 142.073 238.066 140.002 237.672 139.149C237.278 138.296 237.986 138.621 238.223 138.54C240.267 137.89 243.058 138.053 245.22 137.646C258.388 135.128 268.884 129.24 275.134 116.569C277.531 111.777 277.846 104.223 284.922 105.726C291.998 107.228 289.246 109.299 289.089 111.858C288.813 117.381 281.974 128.428 278.358 132.651H278.436Z" fill="url(#paint11_linear_2949_25)"/>
<path d="M97.6193 126.365C105.799 134.193 116.877 136.828 127.956 137.615L121.841 148.276C120.928 148.984 116.957 148 115.567 147.725C100.319 144.814 87.5734 136.199 80.1083 122.667C72.6433 109.135 73.0404 109.843 78.5995 106.578C86.3424 102.054 88.2483 113.383 90.8691 117.907C93.4898 122.431 95.078 123.887 97.6193 126.365Z" fill="url(#paint12_linear_2949_25)"/>
<path d="M110.022 254.029C107.359 256.255 102.799 255.659 101.064 252.599C99.3291 249.538 98.2397 241.033 98.0379 237.695C97.1906 223.706 102.234 209.001 112.564 199.344C112.927 202.165 113.048 205.027 113.451 207.849C113.855 210.67 114.985 213.969 114.904 215.002C114.823 216.036 112.886 219.136 112.402 220.447C110.062 227.004 109.295 233.164 110.183 240.08C111.071 246.995 114.057 250.73 110.062 254.069L110.022 254.029Z" fill="url(#paint13_linear_2949_25)"/>
<path d="M254.07 199.826C266.348 210.489 270.999 236.57 264.88 251.107C263.249 255.021 259.74 256.659 255.865 254.222C251.581 251.507 253.907 247.672 254.519 244.158C255.783 236.53 256.151 229.46 253.703 222.032C253.173 220.394 250.603 215.761 250.603 214.723C250.603 213.685 251.908 209.85 252.153 208.293C252.602 205.337 252.846 202.302 253.009 199.346C253.009 199.306 253.907 199.746 254.111 199.866L254.07 199.826Z" fill="url(#paint14_linear_2949_25)"/>
<path d="M117.518 162.867C116.063 166.74 115.013 170.848 114.205 174.916C104.912 176.559 96.7094 181.801 91.0528 189.117C85.3962 196.432 85.7194 201.518 78.9315 198.427C71.2951 194.946 79.4567 184.696 82.7295 180.667C91.2549 170.3 103.699 163.532 117.477 162.867H117.518Z" fill="url(#paint15_linear_2949_25)"/>
<path d="M278.068 175.705C281.079 178.51 289.204 188.543 289.679 192.375C290.313 197.431 286.35 200.513 281.476 198.933C279.138 198.182 277.236 193.363 275.77 191.19C269.984 182.737 262.336 177.246 252.151 175.034C251.201 170.965 250.646 166.857 249.298 162.867C260.078 163.736 270.222 168.397 278.068 175.666V175.705Z" fill="url(#paint16_linear_2949_25)"/>
<path d="M102.878 272.942L78.4072 252.281L0.000265768 344.881L24.4709 365.542L102.878 272.942Z" fill="#D9D9D9"/>
<path d="M102.878 272.942L78.4072 252.281L0.000265768 344.881L24.4709 365.542L102.878 272.942Z" fill="#C0250D"/>
</g>
<defs>
<linearGradient id="paint0_linear_2949_25" x1="756.494" y1="357.164" x2="756.494" y2="479.996" gradientUnits="userSpaceOnUse">
<stop stop-color="#B22A16"/>
<stop offset="1" stop-color="#C3240B"/>
</linearGradient>
<linearGradient id="paint1_linear_2949_25" x1="561.6" y1="357.461" x2="561.6" y2="480.001" gradientUnits="userSpaceOnUse">
<stop stop-color="#B22A16"/>
<stop offset="1" stop-color="#C3240B"/>
</linearGradient>
<linearGradient id="paint2_linear_2949_25" x1="636.811" y1="357.461" x2="636.811" y2="480.001" gradientUnits="userSpaceOnUse">
<stop stop-color="#B22A16"/>
<stop offset="1" stop-color="#C3240B"/>
</linearGradient>
<linearGradient id="paint3_linear_2949_25" x1="207.173" y1="357" x2="207.173" y2="480" gradientUnits="userSpaceOnUse">
<stop stop-color="#B22A16"/>
<stop offset="1" stop-color="#C3240B"/>
</linearGradient>
<linearGradient id="paint4_linear_2949_25" x1="317.874" y1="357.461" x2="317.874" y2="480.001" gradientUnits="userSpaceOnUse">
<stop stop-color="#B22A16"/>
<stop offset="1" stop-color="#C3240B"/>
</linearGradient>
<linearGradient id="paint5_linear_2949_25" x1="257.705" y1="357.461" x2="257.705" y2="480.001" gradientUnits="userSpaceOnUse">
<stop stop-color="#B22A16"/>
<stop offset="1" stop-color="#C3240B"/>
</linearGradient>
<linearGradient id="paint6_linear_2949_25" x1="182.103" y1="-1.34624e-05" x2="182.103" y2="314" gradientUnits="userSpaceOnUse">
<stop stop-color="#B22A16"/>
<stop offset="1" stop-color="#C3240B"/>
</linearGradient>
<linearGradient id="paint7_linear_2949_25" x1="216.679" y1="114.656" x2="216.679" y2="274.913" gradientUnits="userSpaceOnUse">
<stop stop-color="#B22A16"/>
<stop offset="1" stop-color="#C3240B"/>
</linearGradient>
<linearGradient id="paint8_linear_2949_25" x1="149.484" y1="114.656" x2="149.484" y2="274.914" gradientUnits="userSpaceOnUse">
<stop stop-color="#067BB4"/>
<stop offset="1" stop-color="#058B9D"/>
</linearGradient>
<linearGradient id="paint9_linear_2949_25" x1="149.484" y1="114.656" x2="149.484" y2="274.913" gradientUnits="userSpaceOnUse">
<stop stop-color="#B22A16"/>
<stop offset="1" stop-color="#C3240B"/>
</linearGradient>
<linearGradient id="paint10_linear_2949_25" x1="182.755" y1="53.4141" x2="182.755" y2="115.953" gradientUnits="userSpaceOnUse">
<stop stop-color="#B22A16"/>
<stop offset="1" stop-color="#C3240B"/>
</linearGradient>
<linearGradient id="paint11_linear_2949_25" x1="263.651" y1="105.531" x2="263.651" y2="149.83" gradientUnits="userSpaceOnUse">
<stop stop-color="#B22A16"/>
<stop offset="1" stop-color="#C3240B"/>
</linearGradient>
<linearGradient id="paint12_linear_2949_25" x1="101.208" y1="105.531" x2="101.208" y2="148.527" gradientUnits="userSpaceOnUse">
<stop stop-color="#B22A16"/>
<stop offset="1" stop-color="#C3240B"/>
</linearGradient>
<linearGradient id="paint13_linear_2949_25" x1="106.427" y1="199.344" x2="106.427" y2="255.369" gradientUnits="userSpaceOnUse">
<stop stop-color="#B22A16"/>
<stop offset="1" stop-color="#C3240B"/>
</linearGradient>
<linearGradient id="paint14_linear_2949_25" x1="259.084" y1="199.344" x2="259.084" y2="255.369" gradientUnits="userSpaceOnUse">
<stop stop-color="#B22A16"/>
<stop offset="1" stop-color="#C3240B"/>
</linearGradient>
<linearGradient id="paint15_linear_2949_25" x1="96.6416" y1="162.867" x2="96.6416" y2="199.349" gradientUnits="userSpaceOnUse">
<stop stop-color="#B22A16"/>
<stop offset="1" stop-color="#C3240B"/>
</linearGradient>
<linearGradient id="paint16_linear_2949_25" x1="269.522" y1="162.867" x2="269.522" y2="199.349" gradientUnits="userSpaceOnUse">
<stop stop-color="#B22A16"/>
<stop offset="1" stop-color="#C3240B"/>
</linearGradient>
<clipPath id="clip0_2949_25">
<rect width="815" height="480" fill="white"/>
</clipPath>
</defs>
</svg>
